<?xml version="1.0" encoding="utf-8"?>
<!-- Svg Vector Icons : http://www.onlinewebfonts.com/icon -->
<!DOCTYPE svg PUBLIC "-//W3C//DTD SVG 1.1//EN" "http://www.w3.org/Graphics/SVG/1.1/DTD/svg11.dtd">
<svg version="1.1" xmlns="http://www.w3.org/2000/svg" xmlns:xlink="http://www.w3.org/1999/xlink" x="0px" y="0px" viewBox="0 0 1000 1000" enable-background="new 0 0 1000 1000" xml:space="preserve">
<metadata> Svg Vector Icons : http://www.onlinewebfonts.com/icon </metadata>
<g><g transform="translate(0.000000,511.000000) scale(0.100000,-0.100000)"><path d="M360.1,3650c-104-30-172.1-86-218.1-182.1l-42-86V106.8c0-2736.9,4-3287.1,28-3341.1c32-78,122-164.1,198.1-192.1c40-16,1460.5-22,4677.6-22c3835.3,0,4631.5,4,4685.5,28c86,34,190.1,156,204.1,236.1c6,36,8,1538.5,6,3339.1l-6,3271.1l-54,82c-28,44-86,96-130,118c-74,38-196.1,38-4677.5,42C2018.6,3670,406.1,3664,360.1,3650z M3311.1,2843.7c776.2-164.1,1510.5-1130.4,1960.7-2582.9c250.1-806.3,516.2-1356.5,866.3-1790.6c156-194.1,316.1-326.1,504.2-416.2c140-68,162.1-72,342.1-72s198.1,4,350.1,78c312.1,154,648.2,554.2,922.3,1100.4c124,250.1,286.1,632.2,356.1,848.3l34,104h308.1c280.1,0,308.1-4,308.1-34c0-62-196.1-614.2-312.1-880.3C8504.8-1827.8,7934.6-2458,7302.4-2622.1c-158.1-40-466.2-44-620.2-8c-160.1,38-424.2,166.1-578.2,280.1C5547.8-1935.9,5031.6-1057.6,4709.5,22.8c-230.1,774.3-616.2,1504.5-986.3,1872.6c-356.1,354.1-702.2,432.1-1078.4,246.1c-430.1-212.1-896.3-916.3-1226.4-1858.6l-56-160.1l-312.1-6c-268.1-4-310.1,0-310.1,26c0,16,36,140,82,276.1c340.1,1016.3,850.3,1824.6,1386.5,2192.7c134,94,376.1,202.1,520.2,232.1C2892.9,2879.7,3141,2879.7,3311.1,2843.7z"/></g></g>
</svg>