<?xml version="1.0" encoding="iso-8859-1"?>
<!-- Generator: Adobe Illustrator 17.1.0, SVG Export Plug-In . SVG Version: 6.00 Build 0)  -->
<!DOCTYPE svg PUBLIC "-//W3C//DTD SVG 1.1//EN" "http://www.w3.org/Graphics/SVG/1.1/DTD/svg11.dtd">
<svg version="1.1" id="Capa_1" xmlns="http://www.w3.org/2000/svg" xmlns:xlink="http://www.w3.org/1999/xlink" x="0px" y="0px"
	 viewBox="0 0 511 511" style="enable-background:new 0 0 511 511;" xml:space="preserve">
<path d="M495.5,151.999H495v-8.5c0-4.142-3.358-7.5-7.5-7.5s-7.5,3.358-7.5,7.5v8.5H31v-8.5c0-4.142-3.358-7.5-7.5-7.5
	s-7.5,3.358-7.5,7.5v8.5h-0.5c-8.547,0-15.5,6.953-15.5,15.5v96c0,8.547,6.953,15.5,15.5,15.5H16v8.5c0,4.142,3.358,7.5,7.5,7.5
	s7.5-3.358,7.5-7.5v-8.5h161v24.5c0,6.667,2.796,12.69,7.27,16.971l-6.928,20.786c-0.002,0.006-0.004,0.012-0.006,0.019
	l-6.242,18.725H175.5c-4.142,0-7.5,3.358-7.5,7.5s3.358,7.5,7.5,7.5h15.977c0.008,0,0.016,0.002,0.024,0.002
	c0.008,0,0.016-0.002,0.025-0.002h127.948c0.008,0,0.016,0.002,0.025,0.002c0.008,0,0.016-0.002,0.024-0.002H335.5
	c4.142,0,7.5-3.358,7.5-7.5s-3.358-7.5-7.5-7.5h-10.594l-6.242-18.725c-0.002-0.006-0.004-0.012-0.006-0.019l-6.928-20.786
	c4.475-4.281,7.27-10.304,7.27-16.971v-24.5h161v8.5c0,4.142,3.358,7.5,7.5,7.5s7.5-3.358,7.5-7.5v-8.5h0.5
	c8.547,0,15.5-6.953,15.5-15.5v-96C511,158.952,504.047,151.999,495.5,151.999z M63.5,246.999c4.142,0,7.5-3.358,7.5-7.5v-16
	c0-0.169-0.014-0.334-0.025-0.5h9.05c-0.011,0.166-0.025,0.331-0.025,0.5v16c0,4.142,3.358,7.5,7.5,7.5s7.5-3.358,7.5-7.5v-16
	c0-0.169-0.014-0.334-0.025-0.5h9.05c-0.011,0.166-0.025,0.331-0.025,0.5v16c0,4.142,3.358,7.5,7.5,7.5s7.5-3.358,7.5-7.5v-16
	c0-0.169-0.014-0.334-0.025-0.5h9.05c-0.011,0.166-0.025,0.331-0.025,0.5v16c0,4.142,3.358,7.5,7.5,7.5s7.5-3.358,7.5-7.5v-16
	c0-0.169-0.014-0.334-0.025-0.5h9.05c-0.011,0.166-0.025,0.331-0.025,0.5v16c0,4.142,3.358,7.5,7.5,7.5s7.5-3.358,7.5-7.5v-16
	c0-0.169-0.014-0.334-0.025-0.5h9.05c-0.011,0.166-0.025,0.331-0.025,0.5v16c0,4.142,3.358,7.5,7.5,7.5s7.5-3.358,7.5-7.5v-16
	c0-0.169-0.014-0.334-0.025-0.5h9.05c-0.011,0.166-0.025,0.331-0.025,0.5v16c0,4.142,3.358,7.5,7.5,7.5s7.5-3.358,7.5-7.5v-16
	c0-0.169-0.014-0.334-0.025-0.5h9.05c-0.011,0.166-0.025,0.331-0.025,0.5v16c0,4.142,3.358,7.5,7.5,7.5s7.5-3.358,7.5-7.5v-16
	c0-0.169-0.014-0.334-0.025-0.5h9.05c-0.011,0.166-0.025,0.331-0.025,0.5v16c0,4.142,3.358,7.5,7.5,7.5s7.5-3.358,7.5-7.5v-16
	c0-0.169-0.014-0.334-0.025-0.5h9.05c-0.011,0.166-0.025,0.331-0.025,0.5v16c0,4.142,3.358,7.5,7.5,7.5s7.5-3.358,7.5-7.5v-16
	c0-0.169-0.014-0.334-0.025-0.5h9.05c-0.011,0.166-0.025,0.331-0.025,0.5v16c0,4.142,3.358,7.5,7.5,7.5s7.5-3.358,7.5-7.5v-16
	c0-0.169-0.014-0.334-0.025-0.5h9.05c-0.011,0.166-0.025,0.331-0.025,0.5v16c0,4.142,3.358,7.5,7.5,7.5s7.5-3.358,7.5-7.5v-16
	c0-0.169-0.014-0.334-0.025-0.5h9.05c-0.011,0.166-0.025,0.331-0.025,0.5v16c0,4.142,3.358,7.5,7.5,7.5s7.5-3.358,7.5-7.5v-16
	c0-0.169-0.014-0.334-0.025-0.5h9.05c-0.011,0.166-0.025,0.331-0.025,0.5v16c0,4.142,3.358,7.5,7.5,7.5s7.5-3.358,7.5-7.5v-16
	c0-0.169-0.014-0.334-0.025-0.5h9.05c-0.011,0.166-0.025,0.331-0.025,0.5v16c0,4.142,3.358,7.5,7.5,7.5s7.5-3.358,7.5-7.5v-16
	c0-0.169-0.014-0.334-0.025-0.5h9.05c-0.011,0.166-0.025,0.331-0.025,0.5v16c0,4.142,3.358,7.5,7.5,7.5s7.5-3.358,7.5-7.5v-16
	c0-0.169-0.014-0.334-0.025-0.5h9.05c-0.011,0.166-0.025,0.331-0.025,0.5v16c0,4.142,3.358,7.5,7.5,7.5s7.5-3.358,7.5-7.5v-16
	c0-0.169-0.014-0.334-0.025-0.5h8.525c0.276,0,0.5,0.224,0.5,0.5v40.5H47v-40.5c0-0.276,0.224-0.5,0.5-0.5h8.525
	c-0.011,0.166-0.025,0.331-0.025,0.5v16C56,243.641,59.358,246.999,63.5,246.999z M201.906,359.999l3-9h101.188l3,9H201.906z
	 M301.094,335.999h-91.188l3.047-9.14c0.837,0.091,1.687,0.14,2.547,0.14h80c0.861,0,1.71-0.05,2.547-0.14L301.094,335.999z
	 M304,303.499c0,4.687-3.813,8.5-8.5,8.5h-80c-4.687,0-8.5-3.813-8.5-8.5v-24.5h97V303.499z M496,263.499c0,0.276-0.224,0.5-0.5,0.5
	H479v-40.5c0-8.547-6.953-15.5-15.5-15.5h-416c-8.547,0-15.5,6.953-15.5,15.5v40.5H15.5c-0.276,0-0.5-0.224-0.5-0.5v-96
	c0-0.276,0.224-0.5,0.5-0.5h480c0.276,0,0.5,0.224,0.5,0.5V263.499z"/>
<g>
</g>
<g>
</g>
<g>
</g>
<g>
</g>
<g>
</g>
<g>
</g>
<g>
</g>
<g>
</g>
<g>
</g>
<g>
</g>
<g>
</g>
<g>
</g>
<g>
</g>
<g>
</g>
<g>
</g>
</svg>
